<svg width="3460" height="837" viewBox="0 0 3460 837" fill="none" xmlns="http://www.w3.org/2000/svg">
<path d="M2196 303.318C2146.28 319.891 2101 335.818 2072.5 355.818C2062.66 362.726 2056 381.818 2056 381.818C2056 381.818 2100.47 417.541 2127 405.318C2178 381.818 2218.93 380.203 2279 369.818C2320.14 362.705 2360 368.173 2385 355.818C2394.82 350.967 2405.5 349.224 2405.5 341.318C2405.5 335.318 2370.5 341.318 2325 341.318H2257.5C2254 327.318 2325.57 319.876 2370.5 312.318C2402.5 306.935 2436.5 306.876 2457 303.318C2482 298.979 2528 281.036 2542.5 282.318C2557 283.6 2604 293.818 2604 303.318C2604 316.818 2556.37 316.729 2542.5 341.318C2531.5 360.818 2480.5 391.915 2480.5 407.318C2480.5 412.416 2499 424.369 2508.5 427.818C2518 431.267 2541.64 432.818 2544.5 438.818C2547.83 445.818 2515.79 463.689 2518.5 471.818C2531.5 510.818 2568.97 513.175 2604 535.818C2634.33 555.423 2656.97 577.625 2698.03 589.318C2766.5 608.818 2741 591.318 2706.03 563.318C2697.27 556.311 2679.14 531.707 2677.5 523.318C2673 500.318 2670.5 508.818 2670.5 474.318C2670.5 447.779 2608.43 463.916 2604 460.318C2596 453.818 2682.71 381.818 2670.5 381.818C2665 381.818 2639.81 386.381 2637 381.818C2635.33 379.105 2629.5 366.818 2637 350.818C2637 336.818 2676.34 305.94 2684.5 303.318C2710.15 295.072 2726.84 307.236 2753.5 303.318C2780.16 299.401 2817.5 288.5 2832 303.318C2847.52 319.178 2891.41 363.136 2913.91 369.818C2936.41 376.5 2980.5 369.818 3044 381.818C3073.48 387.389 3086.5 397.233 3117 407.318C3147.5 417.404 3162 400.661 3185.41 427.818C3197.91 442.318 3253.87 463.877 3275.5 474.318C3302.91 487.549 3317.45 498.046 3347 505.318C3389.28 515.724 3454 507.838 3458.5 505.318C3463 502.798 3440.65 482.854 3425 474.318C3403 462.318 3374.04 457.681 3339.5 442.318C3331.26 438.651 3221 375.818 3205 342.318C3193.5 327.982 3167.29 305.282 3162 303.318C3144.5 296.818 3042.94 309.818 3010 303.318C2983 297.99 2923.4 266.963 2913.91 247.192C2907.91 234.692 2876.5 210.318 2864 200.318C2847.15 186.84 2835.47 186.992 2817.5 177.818C2780.51 158.93 2753.19 121.152 2725 125.318C2651.41 136.192 2620.87 166.029 2568.41 187.191C2552.32 193.682 2528.05 205.03 2487.5 220.318C2457 231.818 2390 217.318 2355 220.318C2331.5 222.332 2295.35 256.36 2257.5 276.318C2246.12 282.318 2229 292.318 2196 303.318Z" fill="#D85" stroke="black"/>
<path d="M600.159 515C538.103 530.562 510.66 504 461.09 511.627C411.519 519.253 306.59 584.127 293.089 584.127C279.588 584.127 234.723 646.127 189.089 646.127C168.589 646.127 115.589 669.127 112.589 677.127C109.589 685.127 8.76066 729.428 3.65706 734.5C-23.3502 761.34 108.09 738.627 108.09 738.627C108.09 738.627 202.293 712.981 312.589 677.127C328.989 671.795 348.089 664.127 352.089 658.627C383.807 615.015 432.247 620.708 464.09 615.127C512.59 606.627 571.75 617.175 634.589 601.627C652.442 597.21 663.534 588.445 673.107 580.881L673.589 580.5C686.089 570.627 730.568 557.07 746.089 539.627C770.097 512.646 796.18 487.581 829.59 475.627C884.09 456.127 973.422 449.939 995.09 444.627C1034.09 435.065 1054.09 407.127 1063.59 402.127C1069.3 399.122 1151.09 373.254 1151.09 383.127C1151.09 388.344 1105.73 420.576 1071.09 454.127C1040.18 484.061 1024.09 515.127 984.59 519C945.091 522.874 870.59 596.627 800.09 640.627C776.64 655.262 789.451 683.75 812.16 697C820.09 701.627 891.59 679.513 946.66 663C964.149 657.756 999.642 630.448 1036.59 612.627C1079.77 591.797 1088.27 572.677 1123.66 580.5C1133.16 582.6 1084.09 659.627 1071.09 677.127C1061.64 689.846 926.809 770.697 921.66 778C912.231 791.374 919.537 799.627 921.66 803C927.09 811.627 988.299 796.157 1031.16 795C1106.59 792.965 1162.01 798.351 1264.59 811.627C1307.09 817.127 1358.18 821.774 1413.59 833.5C1433.09 837.627 1462.09 836.127 1490.66 833.5C1519.23 830.874 1358.59 749.627 1337.09 756.627C1315.59 763.627 1202.09 701.627 1202.09 701.627C1202.09 693.5 1219.14 661.511 1240.09 651.627C1266.59 639.127 1305.86 621.127 1311.59 609.627C1326.09 580.5 1381.59 549.127 1381.59 549.127C1389.66 546.124 1393.09 525.536 1389.66 519C1386.23 512.464 1375.59 500.127 1367.59 500.127C1317.59 500.127 1290.09 512.127 1279.59 512.127C1269.09 512.127 1236.16 505 1236.16 505C1209.09 475.627 1218.08 432.127 1222.59 421.627C1227.1 411.127 1264.93 383.214 1281.66 375.127C1309.59 361.627 1377.66 331.5 1377.66 331.5C1377.66 331.5 1381.16 415.127 1384.09 421.627C1387.02 428.127 1397.02 440.5 1406.09 440.5C1477.52 440.5 1567.66 474.127 1605.09 480.627C1635.06 485.831 1627.09 465.826 1567.66 428C1508.23 390.174 1507.59 348.127 1507.59 331.5C1507.59 314.873 1516.09 274.906 1489.09 262.127C1462.09 249.348 1451.09 222.127 1453.66 218.5C1458.51 211.664 1523.42 151.655 1579.66 155.627C1619.59 158.447 1624.16 210.5 1636.59 242C1639.65 249.75 1666.52 253.65 1687.09 254.627C1771.09 254.627 1858.35 240.358 1885.59 280.627C1905.14 309.528 1984.51 372.134 1999.09 380.627C2013.66 389.119 2077.16 408.985 2103.09 428C2144.27 458.202 2111.28 492.733 2146.09 528.127C2186.44 569.157 2182.35 587.291 2198.59 610.627C2212.82 631.077 2270.32 650.154 2309.09 657.627C2392.09 673.627 2349.62 662.127 2322.91 613C2311.55 592.109 2288.16 563 2288.16 563C2288.16 563 2370.09 624.985 2432.16 637.5C2501.59 651.5 2542.48 657.009 2613.16 651.5C2720.59 643.127 2696.09 651.5 2779.09 647.127C2811.27 645.431 2749.93 615.627 2736.59 615.627C2710.09 615.627 2686.09 598.627 2651.09 598.627C2614.88 591.661 2578.87 587.022 2549.59 570.627C2484.49 534.172 2423.09 522.102 2394.66 505C2323.6 462.254 2306.41 404.358 2231.16 369.5C2174.95 343.462 2136.01 353.401 2085.09 318.127C2035.04 283.457 2007.53 218.5 1988.16 203.5C1976.06 194.127 1893.59 164.127 1885.59 164.127C1876.09 159.626 1752.44 162.734 1717.66 121.5C1696.55 96.4646 1704.3 63.4245 1674.66 49.5C1629.16 28.1268 1634.66 -3.85567e-05 1601.16 0C1567.66 3.85568e-05 1444.59 73.5 1444.59 73.5C1421.9 85.9307 1403.99 83.9665 1384.09 100.5C1375.39 107.725 1373.49 115.106 1364.16 121.5C1348.08 132.523 1334.33 127.649 1315.59 133C1283.77 142.084 1267.68 152.42 1236.16 162.5C1183.79 179.25 1168.48 160.929 1099.16 195C1079.09 204.865 999.09 288.19 975.16 305C933.621 334.18 879.634 370 862.59 370C850.803 370 832.813 362 822.59 362C812.16 362 782.819 373.845 761.66 389C749.417 397.77 685.589 460.627 658.589 475.627C643.728 483.883 626.306 508.444 600.159 515Z" fill="#48E"/>
</svg>
