<?xml version="1.0" encoding="utf-8"?>

<!--


	TODO: (note the following)


	THIS HAS BEEN MODIFIED FROM THE ORIGINAL, AND IS MEANT FOR TESTING COLORS ONLY.

	IT IS NOT IN A FINALIZED STATE, NOR IS IT INTENDED TO CONVERTIBLE TO A FINALIZED STATE.


-->

<!-- Generator: Adobe Illustrator 26.1.0, SVG Export Plug-In . SVG Version: 6.00 Build 0)  -->
<!-- TODO: These changes made just for testing -->
<svg version="1.1" id="Layer_1" xmlns="http://www.w3.org/2000/svg" xmlns:xlink="http://www.w3.org/1999/xlink" x="0px" y="0px" viewBox="60 125 500 500" style="enable-background:new 0 0 500 500; background-color:#333333;" xml:space="preserve">
<!-- <svg version="1.1" id="Layer_1" xmlns="http://www.w3.org/2000/svg" xmlns:xlink="http://www.w3.org/1999/xlink" x="0px" y="0px" viewBox="0 0 612 792" style="enable-background:new 0 0 612 792; background-color:#333333;" xml:space="preserve"> -->
<style type="text/css">
	.st0{fill:none;stroke:#000000;stroke-width:3.898;}
	.st1{fill:#FFFFFF;}
	.st2{fill:none;stroke:#EC008C;stroke-width:0.682;}
	.st3{fill:none;stroke:#EC008C;stroke-width:0.748;}

	.primary { fill: #D9C66A; }
	.secondary { fill: #333333; }
</style>

<!-- #region moon and ring lines -->
<g>
	<!-- ring lines -->
	<!-- TODO: These two lines are in a draft state meant only for testing colors -->
	<circle class="primary" cx="307.81" cy="371.25" r="149.62"/>
	<circle class="secondary" cx="307.81" cy="371.25" r="146.12"/>

	<path class="secondary" d="M365.05,230.61c0,0,13.47,8.98,14.59,15.72c1.12,6.74,0.56,5.61,0.56,5.61s110.35,71.84,43.56,205.43
		c-3.93,8.98,12.91,1.12,12.91,1.12S537.36,281.69,365.05,230.61"/>
	<path class="secondary" d="M269.88,234.02c-1.26,0.32,1.94-3.75-3.9-2.19c-3.16,0.85-4.96,0.08-7.34-0.39c-1.41-0.28-2.7-0.23-3.27-0.23
		c-4.68,0-4.9-0.52-10.72,0.4c-10.66,1.68-108.82,59.06-84.69,162.89c8.42,9.54,8.42-6.17,8.42-6.17S383.22,205.58,269.88,234.02"/>

	<!-- moon -->
	<path class="primary" d="M364.49,274.13c-1.59-10.04-11.02-16.9-21.07-15.3c-10.04,1.59-16.89,11.02-15.3,21.07c1.59,10.04,11.02,16.9,21.07,15.3
		C359.23,293.6,366.09,284.17,364.49,274.13"/>
	<path class="secondary" d="M359.76,270.34c-1.43-9.04-9.92-15.21-18.96-13.77c-9.04,1.43-15.21,9.92-13.77,18.96
		c1.43,9.04,9.92,15.21,18.96,13.77C355.02,287.86,361.19,279.37,359.76,270.34"/>
</g>
<!-- #endregion -->

<!-- #region unknown -->
<path class="st2" d="M448.54,296.75"/>
<!-- #endregion -->

<!-- #region grain -->
<g class="primary">
	<path d="M413.1,347.92c0,0-0.26,10.12,9.54,21.33c6.23,7.12,21.22,12.38,23.46,25.54c0.4,2.36,5.31-18.64-1.01-27.5
		C438.08,357.46,421.86,357.78,413.1,347.92"/>
	<path d="M449.92,366.1c0,0,0.65-19.98-9.6-27.17c-10.55-7.4-29.8-4.49-34.52-9.82c-1.32-1.49,6.76,15.38,14.87,19.36
		C430.73,353.42,444.09,352.86,449.92,366.1"/>
	<path d="M449.87,346.23c0,0-0.71-21.04-10.38-26.38c-9.68-5.34-22.17-2.18-32.55-7.51c-5.94-3.05-7.12-5.71-7.12-5.71
		s2.98,14.73,13.01,19.74c4.49,2.24,19.19,1.67,26.66,4.98C445.88,334.19,447.9,338.94,449.87,346.23"/>
	<path d="M383.58,489.7c0,0,47.97-30.02,36.82-44.96c-20.09-25.76-22-50.24-22-50.24s-8.86,32.02-1.68,42.43
		c7.17,10.42,16.24,11.26,16.67,16.22C414.27,463.32,398.82,477.18,383.58,489.7"/>
	<path d="M397.95,287.3c0,0,1.66,17.74,10.38,19.93c8,2.01,26.04,0.95,32.44,7.35c0.79,0.79,1.35,2.75,1.63,2.75
		c1.64,0-6.57-20.21-21.72-23.01C403.39,291.11,401.6,292.63,397.95,287.3"/>
	<path d="M390.09,268.78c0,0,7.72,13.84,13.87,16.77c9.33,4.45,22.48-0.51,30.47,11.85c3.09,4.77-1.96-10.38-12.91-19.64
		C411.98,269.69,400.21,274.89,390.09,268.78"/>
	<path d="M379.14,239.03c0,0,6.53,6.6,8.98,11.51c2.52,5.05,3.04,10.17,5.61,12.07c10.28,7.59,24.42,1.4,30.03,13.75
		c0.97,2.13-0.28-12.07-10.66-23.57C405.06,243.86,388.12,245.69,379.14,239.03"/>
	<path d="M414.43,472.25c6.87-7.44,11.28-15.87,15.34-18.41c7.76-4.85,22.05-3.52,32.16-18.72c0,0-6.43,21.86-23.86,27.29
		c-3.16,0.98-11.01,0.15-14.52,4.46c-1.2,1.47-3.88,3.38-5.28,4.83C416.18,473.87,413,473.8,414.43,472.25"/>
	<path d="M443.91,423.46c0,0,3.98-16.47,11.06-20.92c12.79-8.03,16.56-14.94,18.18-21.23c1.1-4.29-0.64,16.05-2.76,21.54
		C465.42,415.8,443.91,423.46,443.91,423.46"/>
	<path d="M455.48,370.09c0,0,16.84-8.98,13.19-36.48c-1.96,9.26-5.89,13.47-5.89,13.47S452.95,354.65,455.48,370.09"/>
	<path d="M445.31,310.87c0,0,12.98-14.03-5.14-41.08c1.3,7.44-0.68,14.49-0.68,14.49S435.09,291.18,445.31,310.87"/>
	<path d="M421.24,258.11c0,0,13.54-0.84,15.72,12.35c1.91,11.56-2.65,14.08-1.81,17.5c0.85,3.42-8.71-9.6-8.86-14.41
		C426.14,268.74,425.45,260.92,421.24,258.11"/>
	<path d="M450.99,328.13c0,0-5.79-12.57-1.68-17.26c3.93-4.49,5.33-15.15,3.65-20.49C451.17,284.75,467.55,313.12,450.99,328.13"/>
	<path d="M454.36,352.13c0,0-2.73-16.34-1.27-19.46c1.46-3.12,10.25-10.01,7.72-25.58c-0.71-4.37,12.42,16.36,3.79,29.05
		C459.61,343.46,455.59,345.55,454.36,352.13"/>
	<path d="M431.9,448.42c0,0,3.56-13.09,9.26-16.87c3.31-2.19,21.1-7.02,29.34-22.67c3.45-6.56-5.37,24.61-19.23,31.34
		C442.14,444.65,437.45,442.97,431.9,448.42"/>
	<path d="M456.72,375.86c4.33-4.8,12.43-7.36,14.9-23.73c3.11,16.81-1.82,25.54-1.82,25.54s-9.19,17.12-15.77,17.73
		C451.55,395.63,453.49,379.44,456.72,375.86"/>
	<path d="M424.78,447.4c0,0,9.09-13.61,6.29-29.89c-2.11-12.23-26.66-21.89-23.01-40.69c2.66-13.73-13.61,26.1,10.38,53.04
		C425.34,436.88,424.78,447.4,424.78,447.4"/>
	<path d="M435.28,427.9c0,0,11.81-21.96,8.27-30.03c-4.38-9.99-30.11-22.23-29.21-32.67c0.65-7.57-4.04,14.26,2.41,24.25
		C422.87,398.92,439.48,401.24,435.28,427.9"/>
	<path class="st1" d="M155.85,332.31"/>
</g>
<!-- #endregion -->

<!-- #region unknown -->
<path class="st3" d="M155.85,332.31"/>
<!-- #endregion -->

<!-- #region tree (most) -->
<g class="primary">
	<path d="M164.97,438.7c-29.34-48.47-21.68-99.26,3.94-134.37c1.29-1.76,5.69-6.9,6.66-6.7c1.73,0.36,3.23,2.64,2.67,3.62
		c-1.03,1.79-2.05,3.62-3.04,5.49c-9.22,17.44-22.2,40.51-17.2,63.63c1.97,9.11,3.14,17.73,4.91,18.24c0,0,3.48-6.73,4.7-10.82
		c5.03-16.86,6.08-28.82,18.15-43.34c22.48-27.04,22.15-23.69,5.55,5.57c-6.7,11.82-12.17,25.99-14.3,42.48
		c-0.44,3.4-3.11,10.6-3.25,14.19c-0.24,6.19,6.7,9.49,6.7,15.76c0,1.96,0.28,16,7.3,31.43c4.05,8.92,8.38,18.13,14.08,26.54
		c0.7,1.03,5.18,10.17,2.89,8.57C198.26,474.52,176.45,456.56,164.97,438.7"/>
	<path d="M181.88,448.29c-6.35-10.76-9.93-38.58,8.6-70.93c3.58-6.25,2.07-8.71-2.2-3.4c-22.41,27.85-21.1,55.3-21.1,55.3"/>
	<path d="M209.76,478.73c-3.09-2.81-6.6-8.15-7.3-11.23c-0.36-1.59-0.63-4.58-0.51-6.27c0.51-7.2,3.4-10.42,6.12-17.58
		c4-10.49,5.98-8.11,6.94-12.03c3.44-14.07-19.85,8.11-19.85,8.11s-6.08,5.97-9.68,14.68c0,0,2.88,6.52,8.56,11.98
		C206.63,478.49,226.09,493.57,209.76,478.73"/>
	<path d="M206.26,447.76c0,0,10.51-17.79,23.65-33.09c4.28-4.98,2.65-8.21,3.08-10.49c0.43-2.28,0.62-5.69,2.88-7.99
		c2.26-2.29,5.72-4.3,5.72-4.3l3.58-1.83c-1.27-1.36-8.87,2.32-8.87,2.32s-5.7,3.62-6.58,6.82c-0.88,3.19-1.41,6.72-1.74,8.2
		c-0.33,1.48-5.79,9.74-8.98,12.74c-3.2,2.99-10.41,8.83-10.41,8.83l-2.64,10.9L206.26,447.76z"/>
	<path d="M206.13,434.17c0,0,0.39-13.12-1.84-18.01c-2.24-4.89-9.39-5.59-9.39-5.59s5.26-2.95,8.29-0.45
		c3.02,2.51-0.23-9.41,5.52-12.15c0,0-3.25,11.45-2.05,14.2c1.21,2.75,3.54,17.88,3.54,17.88"/>
	<path d="M185.5,392.12c0,0,12.52-14.16,17.01-14.73c4.49-0.56,17.17,2.57,17.17,2.57s14.4,4.14,18.65,0.46
		c4.25-3.68-5.26,2.06-12.33-1.77c-7.08-3.83-18.35-4.87-18.35-4.87s-5.54-3.5-13.58,3.45"/>
	<path d="M195.3,330.25c1.99-1.1,6.97-9.59,6.96-14.01c0,0.05,1.41-12.19,6.49-17.66c6.83-7.36,17.5-15.99,21.94-14.21
		c4.44,1.78-4.03-7.27-25.45,14.06c-8.41,8.38-9.96,22.98-9.96,22.98l-11.74,15.85"/>
	<path d="M154.35,360.54c0,0,4.05-11.57,7.92-16.44c3.87-4.87,9.05-9.34,12.5-12.89c3.45-3.56,9.04-11.93,9.68-13.46
		c0.64-1.53,4.48-12.45,4.48-12.45s2.07-15.19,4.19-23.47c2.12-8.28,11.95-14.07,11.95-14.07l7.47-2.48c0,0,17.32-5.68,18.63-4.42
		c1.31,1.26,10.69,9.43,10.69,9.43l-8.1-11.23l9.08-12.04l0.37-2.93c0,0-6.44,10.13-12.07,12.45c-5.63,2.32-14.74,3.01-14.74,3.01
		l-10.4,2.02c0,0-6.49,2.35-12.1,7.26s-7.73,13.19-7.73,13.19l-0.79,11.27l-5.12,13.98l-7.71,14.92c0,0-8.54,10.59-11.14,12.39
		C158.82,336.38,154.35,360.54,154.35,360.54"/>
	<path d="M195.32,348.38c0,0,13.86-7.06,16.02-9.95c2.15-2.9,8.72-12.96,8.72-12.96l-1.18,4.94l-3.53,6.37l6.52-0.71l7.05-0.57
		l-4.04,2.01l-9.15,1.79c0,0-9.74,9.71-16.35,10.76"/>
	<path d="M170.57,378.93c0,0-3.07-8.36-3.31-20.07c0,0,1.71,3.68,3.86,9.68c3.01,8.4,3.34,1.8,3.34,1.8"/>
	<path d="M208.61,262.8c0,0,6.03-7.18,7.02-9.76c0.99-2.58,3.24-3.8,3.24-3.8l-0.57,3.04l-3.66,8.37"/>
	<path d="M157.9,324.94c0,0,2.46-16.87,2.97-19.04c0.52-2.17,4.66-7.71,4.66-7.71s9.23-6.46,9.87-5.78
		c0.63,0.68-6.78,5.45-9.08,8.43c-2.3,2.98-2.68,7.56-2.68,7.56l0.53,3.74L157.9,324.94z"/>
	<path d="M214.41,338.59c0,0,7.9,4.75,11.68,1.74c3.78-3.02,7.94-7.85,7.94-7.85S219.91,330.24,214.41,338.59"/>
	<path d="M237.35,260.68c0,0,5,7.72,9.73,6.66c4.73-1.06,10.59-3.59,10.59-3.59S245.97,255.58,237.35,260.68"/>
	<path d="M229.5,254.18c0,0,8.62-3.27,8.57-8.1c-0.06-4.83-1.33-11.07-1.33-11.07S226.28,244.72,229.5,254.18"/>
	<path d="M213.02,310.19c0,0,9.19-0.78,10.47-5.43c1.28-4.66,1.79-11,1.79-11S212.55,300.21,213.02,310.19"/>
	<path d="M243.03,361.74c0,0,1.5,9.07,6.26,9.97c4.76,0.9,11.15,0.91,11.15,0.91S252.98,360.49,243.03,361.74"/>
	<path d="M236.7,396.83c0,0,7.54,5.29,11.53,2.54c3.99-2.75,8.47-7.28,8.47-7.28S242.78,388.88,236.7,396.83"/>
	<path d="M252.22,333.42c0,0,8.73-2.97,8.84-7.8c0.11-4.83-0.94-11.11-0.94-11.11S249.34,323.86,252.22,333.42"/>
	<path d="M167.55,295.71c0,0,8.08-4.44,7.35-9.21c-0.73-4.77-2.86-10.77-2.86-10.77S163.05,286.78,167.55,295.71"/>
	<path d="M224.2,306.05c0,0,9.11,1.46,11.48-2.75c2.37-4.21,4.41-10.24,4.41-10.24S226.16,296.25,224.2,306.05"/>
	<path d="M191.96,344.07c0,0,9.11,1.46,11.48-2.75c2.37-4.21,4.41-10.24,4.41-10.24S193.92,334.28,191.96,344.07"/>
	<path d="M226.48,380.14c0,0,5.27,7.54,9.96,6.32c4.69-1.22,10.46-3.96,10.46-3.96S234.92,374.74,226.48,380.14"/>
	<path d="M205.17,428.05c0,0-2.98-8.7-7.83-8.81c-4.85-0.11-11.15,0.93-11.15,0.93S195.56,430.92,205.17,428.05"/>
	<path d="M220.02,314.77c0,0,4.83-5.09,11.73-4.39c6.9,0.7,7.14,3.83,11.93,4.4c1.26,0.15-13.07,9.58-21.68,4.55
		c-4.13-2.41,6.96-4.89,11.48-4.5C230.95,312.8,220.02,314.77,220.02,314.77"/>
	<path d="M216.57,249.14c0,0-2.71-6.46,0.74-12.46c3.45-6,6.42-4.94,8.89-9.06c0.65-1.08,3.47,15.78-4.65,21.58
		c-3.89,2.78-1.65-8.32,0.54-12.27C219.2,238.4,216.57,249.14,216.57,249.14"/>
	<path d="M243.8,242.65c0,0,2.13-6.13,8-7.43c5.87-1.3,7.17,1.56,11.26,0.73c1.08-0.22-7.25,12.67-16.04,10.41
		c-4.22-1.08,3.94-6.54,7.75-7.46C252,237.7,243.8,242.65,243.8,242.65"/>
	<path d="M181.01,364.5c0,0,1.91-6.2,7.73-7.71c5.82-1.51,7.22,1.3,11.28,0.34c1.07-0.25-6.8,12.91-15.67,10.96
		c-4.25-0.94,3.71-6.68,7.49-7.72C189.03,359.27,181.01,364.5,181.01,364.5"/>
	<path d="M218.05,283.06c0,0-3.35-5.57-0.58-10.88c2.77-5.32,5.8-4.47,7.8-8.12c0.53-0.96,5.08,13.67-2.31,18.93
		c-3.54,2.52-2.5-7.21-0.75-10.71C219.51,273.62,218.05,283.06,218.05,283.06"/>
	<path d="M242.66,268.68c0,0,7.02,0.41,10.92,6.13c3.9,5.72,1.64,7.91,4.28,11.93c0.69,1.06-15.77-3.81-17.44-13.62
		c-0.8-4.7,8.23,2.17,10.83,5.86C251.2,275.75,242.66,268.68,242.66,268.68"/>
	<path d="M222.13,285.72c0,0,6.95,6.05,11.2,3.73c4.25-2.32,9.19-6.36,9.19-6.36S229,278.45,222.13,285.72"/>
	<path d="M245,353.64c0,0,5.17-4.74,12.01-3.57c6.84,1.18,6.86,4.32,11.59,5.22c1.24,0.24-13.71,8.65-21.95,3.04
		c-3.95-2.69,7.29-4.39,11.76-3.69C256.04,352.43,245,353.64,245,353.64"/>
	<path d="M242.26,340.89c0,0,5.31-7.51,2.55-11.48c-2.76-3.97-7.31-8.43-7.31-8.43S234.28,334.84,242.26,340.89"/>
	<path d="M165.4,360.36c0,0-4.27-4.9-2.47-10.62c1.8-5.71,4.93-5.4,6.27-9.35c0.35-1.04,7.39,12.58,1.03,19.04
		c-3.05,3.1-3.72-6.67-2.61-10.42C165.2,350.82,165.4,360.36,165.4,360.36"/>
	<path d="M241.18,257.87c0,0,1.31-7.09,6.55-9.04c5.23-1.95,7.61-0.86,13.08-0.91c0,0-1.73,6.42-6.55,7.72
		C248.87,257.09,246.34,253.97,241.18,257.87"/>
	<path d="M244.72,342.86c0,0,2.77-6.66,8.29-7.48c5.52-0.82,7.62,0.73,12.98,1.82c0,0-3.03,5.92-8.01,6.19
		C252.4,343.7,250.58,340.12,244.72,342.86"/>
	<path d="M220.57,404.45c0,0-7.12,1.31-9.08,6.52c-1.96,5.21-0.86,7.58-0.91,13.02c0,0,6.45-1.73,7.75-6.52
		C219.79,412.11,216.65,409.6,220.57,404.45"/>
	<path d="M206.36,405.01c0,0-4.1-5.94-1.79-11s4.77-5.97,8.6-9.85c0,0,3.33,5.76,0.85,10.07
		C211.25,399.04,207.24,398.61,206.36,405.01"/>
	<path d="M217.52,331.13c0,0-0.1-7.93-4.23-9.16s-9.83-1.84-9.83-1.84S208.47,331.27,217.52,331.13"/>
	<path d="M190.05,310.63c0,0,7.93-0.79,8.8-5c0.87-4.2,0.98-9.91,0.98-9.91S189.13,301.66,190.05,310.63"/>
	<path d="M198.79,291.2c0,0-4.58-4.8-3.21-9.73c1.37-4.93,3.47-6.1,6.38-10.17c0,0,3.86,4.75,2.22,9.01
		C202.36,285.09,198.67,285.27,198.79,291.2"/>
	<path d="M199.82,291.55c0,0,7.64,3.25,10.63,0.09c2.99-3.16,6.09-7.99,6.09-7.99S203.67,283.43,199.82,291.55"/>
	<path d="M200.38,407.15c0,0-4.35-2.98-8.73-0.97c-4.38,2-3.81,4.51-6.83,5.96c-0.79,0.38,10.8,4.76,15.3-1
		c2.16-2.76-5.7-2.37-8.58-1.11C192.74,407.9,200.38,407.15,200.38,407.15"/>
	<path d="M221.14,384.43c0,0,8.3,4.01,7.82,8.81c-0.48,4.8-2.29,10.91-2.29,10.91S217.11,393.58,221.14,384.43"/>
	<path d="M213.24,250.39c0,0-4.87-3.86-10.18-1.86c-5.32,2-4.86,4.99-8.53,6.45c-0.96,0.39,12.3,6.49,18.08,0.08
		c2.77-3.07-6.51-3.25-10-2.01C204.19,250.65,213.24,250.39,213.24,250.39"/>
	<path d="M161.89,300.12c0,0-4.94-1.84-5.81-6.56c-0.87-4.72,1.52-5.7,0.99-8.99c-0.14-0.87,10.11,6.08,7.96,13.06
		c-1.03,3.35-5.22-3.29-5.83-6.36C158.13,293.45,161.89,300.12,161.89,300.12"/>
	<path d="M203.46,370.14c0,0,2.65-6.71,8.16-7.63c5.51-0.92,7.64,0.6,13.01,1.59c0,0-2.93,5.97-7.9,6.33
		C211.16,370.84,209.28,367.29,203.46,370.14"/>
	<path d="M222.55,373.56c0,0,1.74-5.62,7.01-6.99c5.27-1.37,6.54,1.18,10.23,0.31c0.97-0.23-6.16,11.7-14.2,9.93
		c-3.85-0.85,3.36-6.05,6.79-7C229.81,368.82,222.55,373.56,222.55,373.56"/>
</g>
<!-- #endregion -->

<!-- #region some back fill -->
<polygon class="secondary" points="195.77,310.15 204.52,310.97 203.11,318.13 192.34,318.32 "/>
<!-- #endregion -->

<!-- #region tree (two branches) -->
<g class="primary">
	<path d="M177.93,324.13c0,0,5.81-3.78,9.81-5.87c4.01-2.08,13.3-1.49,13.3-1.49l10.25-0.74l11.68-1.66l-0.63-1.11
		c0,0-2.15,0.16-7.47,0.24c-5.32,0.08-14.81-1.13-14.81-1.13s-6.47-1.25-9.33-0.3c-2.86,0.95-9.91,3.91-9.91,3.91"/>
	<path d="M229.78,357.41c0,0,3.66-0.6,7.49-1.64s12.32-0.93,9.14-0.59c-5.74,0.63-10.05,3.72-10.05,3.72l-2.5,1.69"/>
	<path d="M177.08,358.22l12.02-6.5c0,0,19.05,3.3,22.59,5.11c3.54,1.81,19.95,2.43,19.95,2.43l10.42,7.86c0,0-4.15-8.06-12.57-10.36
		c-8.41-2.3-22.65-5.73-22.65-5.73s-19.02-8.61-25.71-2.05"/>
</g>
<!-- #endregion -->

<!-- #region some back fill -->
<polygon class="secondary" points="181.88,302.85 191.51,299.12 194.48,289.54 184.55,292.47 "/>
<!-- #endregion -->

<!-- #region tree (miscellaneous details) -->
<g class="primary">
	<path d="M167.53,308.56c0,0-2.9,1.24,1.97-4.49c4.87-5.73,4.49-5.82,7.44-7.51c2.95-1.68,14.9-4.12,14.9-4.12s5.22-1.57,8.87-4.4
		c5.88-4.56,6.85-9.49,6.85-9.49l2.42-9.5l0.09,7.01c0,0-2.07,7.29-4.04,10.82c-2.86,5.13-9.07,8-9.07,8s-4.54,1.91-8.2,3.29
		c-2.41,0.91-7.18,2.06-12.51,7.37c-4.76,4.74-14.87,21.57-14.87,21.57L167.53,308.56z"/>
	<path d="M198.08,403.79c0,0-4.45-2.82-4.31-7.62s2.68-5.26,2.84-8.59c0.04-0.88,8.62,8.04,5.06,14.42
		c-1.71,3.06-4.42-4.3-4.38-7.43C195.79,396.49,198.08,403.79,198.08,403.79"/>
	<path class="secondary" d="M167.95,334.19c0,0,2.35-0.41,7.38-7.02c5.03-6.61,10.82-16.13,11.25-23.29
		C180.72,321.38,167.95,334.19,167.95,334.19"/>
	<path class="secondary" d="M189.56,286.62c0,0,0.85-16.92,18.96-21.49C187.92,268.83,189.56,286.62,189.56,286.62"/>
	<path class="secondary" d="M186.34,342.59l13.27-22.18C199.62,320.41,191.97,339.55,186.34,342.59"/>
	<path class="secondary" d="M162.91,326.87c0,0,8.86-24.23,17.47-27.68C188.99,295.73,169.97,296.11,162.91,326.87"/>
</g>
<!-- #endregion -->

<!-- #region unknown -->
<path class="st3" d="M193.03,377.64"/>
<!-- #endregion -->

<!-- #region stars, mountains, river, furrows, tree branch (one) -->
<g class="primary">
	<path class="secondary" d="M201.78,356.11c0.8-0.73,16.02-7.07,16.02-7.07l8.62,6.39l-14.26,4.63L201.78,356.11z"/>
	<path d="M248.84,326.59c0,0-1.54,10.63-5.32,13.9c-3.78,3.27-21.08,9.12-21.08,9.12l-12.96,4.16c0,0-5.64,1.14-11.01,8.29
		s-23.04,25.67-29.24,44.45c-3.43,10.38,4.62,29.99,4.62,29.99s9.25-36.15,15.15-46.97c3.49-6.4,14.71-24.98,14.71-24.98
		s6.16-6.54,9.29-6.76c3.13-0.22,18.24-6.66,22.85-8.99c4.6-2.33,10.75-7.64,10.75-7.64S251.19,329.05,248.84,326.59"/>
	<path class="secondary" d="M216.37,354.72c0,0,18.78-7.5,21.71-9.12C241.01,343.98,229.22,352.22,216.37,354.72"/>
	<path d="M373.09,329.92c-3.21-4.8-4.65-11.22-9.05-10.6c-5.92,0-5.48,6.35-16.01,5.81c-4.65,6.24-11.4,4.8-11.4,11.25
		c9.81-3.03,12.98-2.45,13.92-4.08c0-1.05-14.86,1.62,3.28-2.38c10.21-4.04,1.8,0,0,6.46c1.62,4.35,6.06,7.94,11.47,10.39
		c0.25-0.25,0.94-0.4-0.4-1.83c-9.86-6.18-1.59-9.82-4.29-10.33c-2.74-1.05,1.12-6.21,2.6-6.67c7.61-2.38,3.97,4.52,7.47,5.99
		c15.01-0.79,10.75,11.07,22.22,7.65C380.7,341.57,387.59,328.04,373.09,329.92"/>
	<path d="M275.67,341.93c-3.73,2.73-8.55-1.08-11.87,5.52c0,3.28,15.04,0.9,20.52-5.52c23.45-17.28,7.9,0.83,6.13,1.7
		c-6.82,7.11-13.53,14.93,2.53,5.41c9.95-7.34-2.53,7.21-4.8,11.36c8.87-1.08,8.12-0.94,21.86,1.98c1.64-5.47-19.59-5.09-5.95-13.35
		c0-7.11,7.25-8.19-4-7.11c-0.41-4.46,1.34-8.92,5.7-9.95c2.85-0.67,0,7.68,9.67,7.68c0-13.74-23.59-15.91-6.82-18.47
		c15.08,3.14,5.34,6.31,15.01,6.31c8.26,14.36,13.56,5.35,11.4,14.43c3.21,4.08,5.12,9.92,8.84,9.92c0.53-2.42-1.15-1.12-1.15-6.24
		c4.94,5.12,2.02,5.12,19.62,5.12c0-5.12-14.68,1.12-22.18-16.77c-6.38-1.98-9.05-4.83-11.36-11.94c-1.3-4-13.35-2.6-18.76-10.21
		c-11.69,0-19.3,21.61-26.4,22.15C281.19,334.28,279.22,339.33,275.67,341.93"/>
	<path d="M358.79,462.51c-5.72,0-14.61,1.08-14.61,1.08s8.89,1.08,14.61,1.08c5.68,0,14.52-1.08,14.52-1.08
		S364.48,462.51,358.79,462.51"/>
	<path d="M343.7,451.01c-15.2,0-38.81,1.08-38.81,1.08s23.62,1.08,38.81,1.08c15.1,0,38.57-1.08,38.57-1.08
		S358.81,451.01,343.7,451.01"/>
	<path d="M312.38,442.38c-14.56,0-37.19,1.08-37.19,1.08s22.62,1.08,37.19,1.08c14.47,0,36.95-1.08,36.95-1.08
		S326.85,442.39,312.38,442.38"/>
	<path d="M372.44,436.63c-5.1,0-13.02,1.08-13.02,1.08s7.92,1.08,13.02,1.08c5.07,0,12.94-1.08,12.94-1.08
		S377.5,436.64,372.44,436.63"/>
	<path d="M295.88,432.32c-15.2,0-38.81,1.08-38.81,1.08s23.62,1.08,38.81,1.08c15.1,0,38.57-1.08,38.57-1.08
		S310.98,432.32,295.88,432.32"/>
	<path d="M348.76,422.26c-12.43,0-31.74,1.08-31.74,1.08s19.31,1.08,31.74,1.08c12.35,0,31.54-1.08,31.54-1.08
		S361.11,422.26,348.76,422.26"/>
	<path d="M288.16,422.26c-6.68,0-17.05,1.08-17.05,1.08s10.38,1.08,17.05,1.08c6.63,0,16.94-1.08,16.94-1.08
		S294.79,422.26,288.16,422.26"/>
	<path d="M361.33,412.2c-9.48,0-24.2,1.08-24.2,1.08s14.73,1.08,24.2,1.08c9.42,0,24.05-1.08,24.05-1.08S370.74,412.2,361.33,412.2"
		/>
	<path d="M309.29,412.2c-7.11,0-18.15,1.08-18.15,1.08s11.04,1.08,18.15,1.08c7.06,0,18.03-1.08,18.03-1.08
		S316.35,412.2,309.29,412.2"/>
	<path d="M349.75,402.14c-12.04,0-30.75,1.08-30.75,1.08s18.71,1.08,30.75,1.08c11.96,0,30.55-1.08,30.55-1.08
		S361.71,402.14,349.75,402.14"/>
	<path d="M372.9,393.94c-5.89,0-15.04,0.68-15.04,0.68s9.15,0.68,15.04,0.68c5.85,0,14.94-0.68,14.94-0.68
		S378.75,393.94,372.9,393.94"/>
	<path d="M219.02,449.09c0,15.39,6.58,40.09,39.04,53.93c15.53,5.92,32.39,9.16,50,9.16c44.82,0,84.74-21,110.45-53.69
		c0,0-0.51-5.52-1.92-7.27c-2.53-3.12-6.91-2.87-5.84-1.96c3.82,3.25,2.29,6.62,1.23,8.31c-1.18,1.89-2.34,3.15-4.45,4.77
		c-34.04,26.2-162.5,14.37-162.5-28.56c0-25.24,37.85-43.96,75.75-43.96c18.91,0,51.49-2.79,62.38-6.75
		c20.3-7.4,11.09-18.62-0.72-22.23c-5.54-1.7-11.37-1.93-18.51-1.93c-12.01,0-15.73-0.74-17.72-1.13c-0.31-0.06-0.58-0.11-0.83-0.15
		c-7.31-1.19,0,2.47,11.62,2.47h0.46c46.61,0,42.79,27.75-36.67,27.75C241.33,387.84,219.02,427.1,219.02,449.09"/>
	<path class="secondary" d="M301.9,495.81c-77.32-5.07-76.74-51.95-76.74-51.95s-8.9,54.28,76.62,59.29c51.38,3.01,87.11-21.5,87.38-22.15
		C390.32,480.32,357.1,499.43,301.9,495.81"/>
	<path class="secondary" d="M240.04,435.36c0-37.96,65.95-45.75,65.95-45.75s-72.93,6.61-72.93,47.15c0,27.24,40.01,35.67,40.01,35.67
		S240.04,462.99,240.04,435.36"/>
	<path class="secondary" d="M386.94,364.39c0,0,6.36,3.3,6.36,7.32c0,6.38-11.23,9.66-11.23,9.66s9.16-3.57,9.16-9.95
		C391.24,367.21,386.94,364.39,386.94,364.39"/>
	<path d="M278.59,255.97c0.11,6.67,0.21,6.77,6.93,6.88c-6.72,0.11-6.82,0.21-6.93,6.88c-0.12-6.67-0.21-6.77-6.93-6.88
		C278.38,262.74,278.47,262.65,278.59,255.97"/>
	<path d="M273.54,286.7c0.11,6.67,0.21,6.77,6.93,6.88c-6.72,0.11-6.82,0.21-6.93,6.88c-0.12-6.67-0.21-6.77-6.93-6.88
		C273.33,293.46,273.42,293.37,273.54,286.7"/>
	<path d="M304.02,274.59c0.11,6.67,0.21,6.77,6.93,6.88c-6.72,0.11-6.82,0.21-6.93,6.88c-0.12-6.67-0.21-6.77-6.93-6.88
		C303.81,281.36,303.9,281.27,304.02,274.59"/>
</g>
<!-- #endregion -->

<!-- #region title -->
<g id="Layer_2" class="primary">
	<g>
		<path d="M143.52,282.39l2.96-3.63l-36.9-30.09l-2.96,3.63l-2.38-1.94l10.24-12.56c1-1.23,2.3-2.42,3.89-3.56
			c1.59-1.14,3.35-2.01,5.28-2.58c1.92-0.58,3.94-0.74,6.04-0.48c2.1,0.26,4.12,1.18,6.07,2.77c3.41,2.78,5.25,6.08,5.5,9.9
			c0.25,3.82-1.29,7.78-4.63,11.88l-5.4,6.63l17.2,14.02l4.8-5.89l2.38,1.94l-9.71,11.9L143.52,282.39z M128.83,260.41l5.08-6.23
			c1.69-2.08,2.83-4.03,3.39-5.87c0.57-1.83,0.75-3.52,0.54-5.05c-0.21-1.53-0.69-2.87-1.44-4.02c-0.75-1.15-1.61-2.11-2.57-2.89
			c-1.12-0.91-2.41-1.52-3.89-1.82c-1.47-0.31-3-0.3-4.58,0.01c-1.58,0.31-3.13,0.93-4.64,1.85c-1.52,0.93-2.88,2.13-4.08,3.61
			l-5.13,6.29L128.83,260.41z"/>
	</g>
	<g>
		<path d="M154.02,231.57c-2.25-3.05-3.79-6.35-4.63-9.9c-0.84-3.55-1-7.06-0.48-10.53c0.52-3.47,1.69-6.78,3.5-9.94
			c1.81-3.15,4.24-5.85,7.29-8.1s6.35-3.79,9.92-4.6c3.56-0.82,7.08-0.97,10.55-0.44c3.47,0.52,6.79,1.7,9.96,3.53
			s5.88,4.27,8.12,7.32c2.25,3.05,3.78,6.34,4.58,9.89c0.8,3.54,0.94,7.05,0.42,10.52c-0.52,3.47-1.71,6.78-3.55,9.93
			c-1.85,3.15-4.29,5.84-7.34,8.1c-3.05,2.25-6.34,3.79-9.87,4.61c-3.53,0.83-7.03,0.98-10.5,0.45c-3.47-0.52-6.78-1.7-9.9-3.52
			C158.97,237.06,156.28,234.62,154.02,231.57z M156.54,229.81c2.01,2.72,4.39,4.89,7.16,6.5c2.76,1.62,5.68,2.64,8.76,3.08
			c3.07,0.44,6.17,0.29,9.3-0.42c3.12-0.71,6.03-2.07,8.72-4.06c2.7-1.99,4.86-4.39,6.51-7.19s2.71-5.76,3.21-8.86
			c0.5-3.1,0.38-6.22-0.33-9.35c-0.71-3.13-2.07-6.06-4.08-8.78c-2.01-2.72-4.41-4.89-7.21-6.51c-2.8-1.62-5.75-2.67-8.86-3.15
			c-3.11-0.48-6.24-0.34-9.4,0.41c-3.16,0.75-6.09,2.11-8.79,4.1c-2.7,1.99-4.85,4.39-6.45,7.2c-1.61,2.81-2.64,5.77-3.1,8.88
			c-0.46,3.11-0.31,6.23,0.44,9.37C153.15,224.16,154.53,227.09,156.54,229.81z"/>
	</g>
	<g>
		<path d="M217.87,215.04l5.2-1.87l-16.1-44.81l-5.2,1.87l-1.04-2.89l35.2-12.64l4,11.13l-2.89,1.04l-2.96-8.24l-24.21,8.7
			l7.45,20.74l24.29-8.72l1.04,2.89l-24.29,8.72l7.61,21.18l25.23-9.06l-2.96-8.24l2.89-1.04l4,11.13l-36.21,13.01L217.87,215.04z"
			/>
	</g>
	<g>
		<path d="M328.79,143.87l7.98-0.05l0.02,3.07l-6.22,0.04l0.3,47.62l6.45-0.04l0.02,3.07l-15.28,0.1l-0.02-3.07l5.76-0.04
			l-0.26-41.09c0-0.05,0.01-0.23,0.04-0.54c0.02-0.31,0.05-0.63,0.07-0.96c0.02-0.33,0.03-0.65,0.03-0.96s0-0.51,0-0.61
			c-0.15,0.26-0.34,0.55-0.57,0.89c-0.23,0.33-0.5,0.71-0.81,1.12c-1.12,1.54-2.65,3.58-4.57,6.1c-1.92,2.52-3.98,5.22-6.18,8.1
			c-2.2,2.88-4.44,5.8-6.72,8.76c-2.28,2.96-4.34,5.65-6.18,8.06c-3.58-4.59-6.61-8.48-9.1-11.69c-2.49-3.21-4.65-6-6.5-8.37
			s-3.45-4.42-4.82-6.15c-1.38-1.73-2.71-3.41-4.01-5.04l-0.93-1.45c0,0.56,0.02,1.09,0.05,1.57c0.03,0.49,0.07,0.99,0.12,1.5
			l0.26,41.09l5.99-0.04l0.02,3.07l-15.28,0.1l-0.02-3.07l6.22-0.04l-0.3-47.62l-6.22,0.04l-0.02-3.07l7.98-0.05
			c0.57,0.76,1.42,1.87,2.56,3.32c1.14,1.45,2.44,3.12,3.92,5.01c1.47,1.89,3.06,3.94,4.77,6.15c1.71,2.22,3.45,4.46,5.24,6.73
			c1.78,2.27,3.54,4.5,5.28,6.69c1.73,2.19,3.32,4.23,4.77,6.11c4.39-5.71,8.75-11.43,13.09-17.17
			C320.04,155.3,324.41,149.58,328.79,143.87z"/>
	</g>
	<g>
		<path d="M352.39,195.38l2.56-7.73l2.92,0.97l-2.17,6.56c0.97,1.67,2.29,3.25,3.96,4.75c1.67,1.5,3.85,2.69,6.54,3.58
			c1.61,0.54,3.28,0.8,4.98,0.8s3.31-0.28,4.79-0.84s2.81-1.4,3.97-2.53c1.16-1.13,2.03-2.56,2.61-4.31
			c0.71-2.14,0.92-4.01,0.64-5.61c-0.28-1.6-0.86-3.04-1.75-4.3c-0.88-1.26-1.99-2.41-3.33-3.45c-1.34-1.04-2.73-2.05-4.16-3.04
			c-1.44-0.99-2.83-2-4.2-3.05c-1.36-1.04-2.52-2.21-3.48-3.5s-1.6-2.73-1.94-4.33c-0.34-1.6-0.21-3.45,0.38-5.58
			c0.43-1.64,1.16-3.19,2.19-4.65c1.03-1.47,2.29-2.67,3.78-3.6c1.49-0.93,3.23-1.53,5.21-1.79c1.98-0.26,4.18,0.01,6.61,0.81
			c0.83,0.27,1.71,0.62,2.65,1.04c0.94,0.42,1.88,0.92,2.82,1.5c0.94,0.58,1.84,1.29,2.7,2.11c0.86,0.83,1.62,1.78,2.29,2.86
			l-2.61,7.87l-2.92-0.97l2.13-6.42c-0.74-0.89-1.78-1.8-3.13-2.74c-1.35-0.93-3.03-1.73-5.04-2.4c-1.71-0.57-3.3-0.78-4.76-0.65
			c-1.46,0.14-2.77,0.54-3.94,1.2c-1.17,0.66-2.17,1.55-3,2.65c-0.83,1.1-1.46,2.31-1.89,3.62c-0.58,1.75-0.69,3.3-0.33,4.67
			c0.36,1.36,1.02,2.6,1.98,3.73c0.96,1.13,2.12,2.19,3.5,3.18c1.38,1,2.79,2.01,4.25,3.03c1.45,1.02,2.84,2.11,4.16,3.28
			c1.32,1.17,2.42,2.47,3.3,3.92c0.87,1.45,1.43,3.1,1.65,4.96c0.23,1.85-0.04,4.01-0.8,6.45c-0.71,2.14-1.75,3.95-3.14,5.43
			c-1.38,1.48-2.97,2.62-4.77,3.4c-1.8,0.78-3.75,1.18-5.86,1.21c-2.11,0.03-4.21-0.3-6.3-1c-1.89-0.63-3.58-1.4-5.05-2.32
			s-2.76-1.9-3.84-2.93c-1.09-1.04-1.97-2.07-2.65-3.11C353.22,197.11,352.71,196.19,352.39,195.38z"/>
	</g>
	<g>
		<path d="M426.78,201.77c2.43-2.91,5.27-5.19,8.52-6.84c3.25-1.66,6.62-2.64,10.12-2.95c3.5-0.31,6.99,0.04,10.48,1.05
			c3.49,1.01,6.69,2.74,9.6,5.16c2.91,2.43,5.18,5.28,6.82,8.55c1.64,3.27,2.61,6.65,2.93,10.15s-0.04,7-1.07,10.51
			c-1.03,3.51-2.76,6.72-5.19,9.62c-2.43,2.91-5.27,5.17-8.52,6.79c-3.25,1.62-6.63,2.58-10.13,2.9s-6.99-0.05-10.49-1.1
			c-3.49-1.05-6.69-2.79-9.6-5.22s-5.18-5.26-6.81-8.49c-1.64-3.23-2.61-6.6-2.92-10.1c-0.31-3.5,0.04-6.98,1.08-10.46
			C422.62,207.87,424.35,204.68,426.78,201.77z M429.09,203.8c-2.17,2.59-3.71,5.43-4.63,8.49c-0.92,3.07-1.22,6.15-0.92,9.24
			c0.3,3.09,1.17,6.07,2.61,8.93c1.43,2.86,3.43,5.37,6,7.52s5.41,3.69,8.53,4.62c3.11,0.93,6.24,1.27,9.37,1.02
			c3.13-0.25,6.13-1.1,9.01-2.53c2.88-1.43,5.4-3.45,7.56-6.04c2.17-2.59,3.71-5.44,4.62-8.55c0.91-3.1,1.24-6.22,0.96-9.35
			c-0.27-3.13-1.15-6.14-2.62-9.04c-1.47-2.9-3.49-5.42-6.06-7.57c-2.57-2.15-5.41-3.67-8.52-4.57c-3.11-0.9-6.23-1.2-9.36-0.91
			c-3.13,0.29-6.13,1.17-9,2.64C433.77,199.18,431.25,201.21,429.09,203.8z"/>
	</g>
	<g>
		<path d="M463.04,266.39l3.12,4.56l39.3-26.89l-3.12-4.56l2.53-1.74l21.12,30.87l-9.76,6.68l-1.73-2.54l7.23-4.94l-14.53-21.23
			L489,259.05l14.57,21.29l-2.54,1.73l-14.57-21.29l-18.57,12.71l3.82,5.58l-2.54,1.74l-8.67-12.68L463.04,266.39z"/>
	</g>
	<g>
		<path d="M141.93,535.12l4.97,4.26l36.64-42.81l-4.97-4.26l2.36-2.76l33.63,28.78l-9.1,10.63l-2.76-2.37l6.74-7.87l-23.13-19.79
			l-16.96,19.82l23.2,19.85l-2.36,2.76l-23.2-19.86l-17.31,20.23l24.1,20.62l6.74-7.87l2.76,2.36l-9.1,10.63l-34.59-29.61
			L141.93,535.12z"/>
	</g>
	<g>
		<path d="M193.21,577.7l6.48,2.51c7.99-8.21,15.94-16.37,23.86-24.48c7.92-8.11,15.84-16.28,23.77-24.51
			c0.32,11.43,0.67,22.81,1.06,34.13c0.39,11.33,0.74,22.7,1.06,34.13l6.65,2.58l-1.31,3.39l-16.19-6.27l1.31-3.39l6.14,2.38
			c-0.17-4.29-0.32-8.55-0.45-12.79c-0.13-4.24-0.26-8.53-0.42-12.88l-24-9.29c-3.03,3.12-6.01,6.2-8.94,9.25
			c-2.94,3.05-5.91,6.11-8.91,9.17l6.23,2.41l-1.31,3.39l-16.36-6.33L193.21,577.7z M244.12,541.76l0.15-2.67
			c-0.18,0.13-0.48,0.49-0.92,1.11c-0.25,0.29-0.53,0.61-0.85,0.94c-1.13,1.25-2.44,2.65-3.91,4.19c-1.47,1.54-3.02,3.15-4.65,4.83
			c-1.62,1.68-3.28,3.39-4.96,5.14s-3.33,3.45-4.95,5.1l20.93,8.11L244.12,541.76z"/>
	</g>
	<g>
		<path d="M276.13,605.23l5.54,0.18l1.78-56.32l-5.54-0.18l0.12-3.63l19.17,0.61c1.88,0.06,3.93,0.43,6.15,1.11
			c2.22,0.68,4.29,1.71,6.22,3.11c1.92,1.39,3.52,3.17,4.79,5.33c1.26,2.16,1.85,4.73,1.75,7.69c-0.14,4.36-1.42,7.94-3.84,10.74
			c-2.42,2.8-5.86,4.59-10.31,5.36l11.78,27.2l7.99,0.25l-0.12,3.63l-10.35-0.33l-13.22-30.51c-0.67,0.04-1.38,0.06-2.11,0.07
			c-0.73,0.01-1.44,0-2.11-0.02l-7.69-0.24l-0.83,26.25l8.99,0.29l-0.12,3.63l-18.17-0.58L276.13,605.23z M286.25,575.64l9.51,0.3
			c3.17,0.1,5.82-0.24,7.95-1.03c2.13-0.78,3.84-1.82,5.13-3.12c1.29-1.3,2.21-2.71,2.74-4.25c0.54-1.53,0.83-3.03,0.88-4.49
			c0.05-1.7-0.31-3.35-1.08-4.96c-0.77-1.61-1.87-3.04-3.3-4.3c-1.43-1.26-3.12-2.27-5.08-3.04c-1.96-0.76-4.07-1.18-6.32-1.25
			l-9.61-0.3L286.25,575.64z"/>
	</g>
	<g>
		<path d="M360.25,601.3l7.13-2.17l-16.4-53.91l-18.78,5.71l3.02,9.91l-3.48,1.06l-4.07-13.39l47.99-14.6l4.07,13.39l-3.48,1.06
			l-3.02-9.91l-18.78,5.71l16.4,53.91l6.78-2.06l1.06,3.48l-17.39,5.29L360.25,601.3z"/>
	</g>
	<g>
		<path d="M423.19,503.36l14.29-11.09l2.23,2.87l-5.53,4.29l34.55,44.51l5.53-4.29l2.23,2.87l-14.29,11.09l-2.23-2.87l5.89-4.57
			l-16.33-21.03l-31.08,24.13l16.33,21.04l5.89-4.57l2.23,2.87l-14.36,11.14l-2.23-2.87l5.6-4.35l-34.55-44.51l-5.6,4.35l-2.23-2.87
			l14.36-11.15l2.23,2.87l-5.89,4.57l15.99,20.6l31.09-24.13l-15.99-20.6l-5.89,4.57L423.19,503.36z"/>
	</g>
</g>
<!-- #endregion -->
</svg>
